<svg width="32" height="21" viewBox="0 0 32 21" fill="none" xmlns="http://www.w3.org/2000/svg">
<path d="M24.3125 7.36004L28.8125 1.54336C28.9792 1.29308 29.0208 1.04281 28.9375 0.792536C28.8958 0.500549 28.7708 0.291987 28.5625 0.16685C28.3125 -1.49012e-08 28.0417 -0.0417123 27.75 0.0417125C27.5 0.0834249 27.3125 0.208562 27.1875 0.417124L22.5 6.35895C21.5417 5.94182 20.5 5.60812 19.375 5.35785C18.2917 5.10757 17.1667 4.98244 16 4.98244C14.8333 4.98244 13.6875 5.10757 12.5625 5.35785C11.4792 5.60812 10.4583 5.94182 9.5 6.35895L4.8125 0.417124C4.6875 0.208562 4.47917 0.0834248 4.1875 0.0417124C3.9375 -0.0417124 3.6875 -1.49012e-08 3.4375 0.16685C3.22917 0.291987 3.08333 0.500549 3 0.792536C2.95833 1.04281 3.02083 1.29308 3.1875 1.54336L7.6875 7.29748C5.39583 8.7157 3.54167 10.6345 2.125 13.0538C0.708333 15.4731 0 18.1218 0 21H32C32 18.1218 31.2917 15.4731 29.875 13.0538C28.4583 10.6345 26.6042 8.73655 24.3125 7.36004ZM9 16.9934C8.45833 16.9934 7.97917 16.8057 7.5625 16.4303C7.1875 16.0132 7 15.5335 7 14.9912C7 14.449 7.1875 13.9901 7.5625 13.6147C7.97917 13.1976 8.45833 12.989 9 12.989C9.54167 12.989 10 13.1976 10.375 13.6147C10.7917 13.9901 11 14.449 11 14.9912C11 15.5335 10.7917 16.0132 10.375 16.4303C10 16.8057 9.54167 16.9934 9 16.9934ZM23 16.9934C22.4583 16.9934 21.9792 16.8057 21.5625 16.4303C21.1875 16.0132 21 15.5335 21 14.9912C21 14.449 21.1875 13.9901 21.5625 13.6147C21.9792 13.1976 22.4583 12.989 23 12.989C23.5417 12.989 24 13.1976 24.375 13.6147C24.7917 13.9901 25 14.449 25 14.9912C25 15.5335 24.7917 16.0132 24.375 16.4303C24 16.8057 23.5417 16.9934 23 16.9934Z" fill="#19CDA6"/>
</svg>
