<svg width="26" height="31" viewBox="0 0 26 31" fill="none" xmlns="http://www.w3.org/2000/svg">
<path d="M25.1188 11.2022C24.3215 10.2506 23.4088 9.51618 22.3807 8.999C21.3526 8.46113 20.3245 8.19219 19.2964 8.19219C17.9325 8.19219 16.8625 8.40941 16.0862 8.84384C15.3308 9.25759 14.4811 9.46446 13.5369 9.46446C12.5507 9.46446 11.6276 9.25759 10.7673 8.84384C9.92804 8.40941 8.91043 8.19219 7.71447 8.19219C6.56048 8.19219 5.40648 8.52319 4.25249 9.18519C3.11948 9.84718 2.16482 10.7678 1.38849 11.9469C0.84297 12.7744 0.454809 13.7778 0.22401 14.957C-0.00678819 16.1154 -0.0592424 17.3567 0.0666477 18.6807C0.213519 20.0047 0.538736 21.3804 1.0423 22.8078C1.54586 24.2145 2.23825 25.5799 3.11948 26.9039C3.74893 27.8762 4.49378 28.7968 5.35403 29.6657C6.21428 30.5552 7.20042 31 8.31245 31C9.31957 31 10.1064 30.7931 10.6729 30.3794C11.2394 29.9656 12.1941 29.7484 13.5369 29.7277C14.8797 29.7277 15.8344 29.9346 16.4009 30.3483C16.9674 30.7828 17.7437 31 18.7298 31C19.8419 30.9793 20.8385 30.4932 21.7197 29.5415C22.622 28.5899 23.3878 27.6383 24.0172 26.6867C24.4788 26.004 24.8355 25.4248 25.0873 24.9489C25.3391 24.4731 25.6433 23.8422 26 23.0561C24.6991 22.5802 23.6815 21.8252 22.9472 20.7908C22.2128 19.7564 21.7932 18.6497 21.6883 17.4705C21.5834 16.2706 21.8037 15.1018 22.3492 13.964C22.9157 12.8055 23.8389 11.8849 25.1188 11.2022ZM17.5024 4.84084C18.006 4.22022 18.4151 3.48582 18.7298 2.63764C19.0446 1.78946 19.1285 0.910244 18.9816 0C18.1843 0.0620621 17.3555 0.320654 16.4953 0.775776C15.6351 1.2309 14.9217 1.78946 14.3552 2.45145C13.8516 3.05138 13.432 3.77544 13.0963 4.62362C12.7815 5.45112 12.6976 6.2993 12.8445 7.16817C13.7467 7.18886 14.6174 6.97164 15.4567 6.51652C16.296 6.06139 16.9779 5.50284 17.5024 4.84084Z" fill="#09C4FF"/>
</svg>
